<?xml version="1.0" encoding="UTF-8" standalone="no"?>
<svg
   xmlns:dc="http://purl.org/dc/elements/1.1/"
   xmlns:cc="http://creativecommons.org/ns#"
   xmlns:rdf="http://www.w3.org/1999/02/22-rdf-syntax-ns#"
   xmlns:svg="http://www.w3.org/2000/svg"
   xmlns="http://www.w3.org/2000/svg"
   xmlns:sodipodi="http://sodipodi.sourceforge.net/DTD/sodipodi-0.dtd"
   xmlns:inkscape="http://www.inkscape.org/namespaces/inkscape"
   width="8"
   height="11"
   viewBox="0 0 8 11"
   fill="none"
   version="1.1"
   id="svg4"
   sodipodi:docname="expand.svg"
   inkscape:version="1.0.2-2 (e86c870879, 2021-01-15)">
  <metadata
     id="metadata10">
    <rdf:RDF>
      <cc:Work
         rdf:about="">
        <dc:format>image/svg+xml</dc:format>
        <dc:type
           rdf:resource="http://purl.org/dc/dcmitype/StillImage" />
      </cc:Work>
    </rdf:RDF>
  </metadata>
  <defs
     id="defs8" />
  <sodipodi:namedview
     pagecolor="#ffffff"
     bordercolor="#666666"
     borderopacity="1"
     objecttolerance="10"
     gridtolerance="10"
     guidetolerance="10"
     inkscape:pageopacity="0"
     inkscape:pageshadow="2"
     inkscape:window-width="935"
     inkscape:window-height="480"
     id="namedview6"
     showgrid="false"
     inkscape:zoom="75.090909"
     inkscape:cx="4"
     inkscape:cy="9.9695823"
     inkscape:window-x="724"
     inkscape:window-y="208"
     inkscape:window-maximized="0"
     inkscape:current-layer="svg4" />
  <path
     fill-rule="evenodd"
     clip-rule="evenodd"
     d="m 1.5000736,10.378768 2.5,-2.5000042 2.5,2.5000042 c 0.27615,0.276143 0.723862,0.276143 1.000004,0 0.276143,-0.276142 0.276143,-0.7238542 1e-6,-1.0000042 l -2.792895,-2.79289 c -0.39052,-0.39052 -1.02369,-0.39052 -1.41421,0 l -2.7929,2.79289 c -0.27614,0.27615 -0.27614,0.7238622 0,1.0000042 0.27615,0.276143 0.72386,0.276143 1,0 z m 0,-6.0000042 2.5,-2.5 2.5,2.5 c 0.27615,0.27615 0.723862,0.27615 1.000004,0 0.276143,-0.27614 0.276143,-0.72385 1e-6,-1 l -2.792895,-2.79292 c -0.39052,-0.3905 -1.02369,-0.3905 -1.41421,0 l -2.7929,2.79292 c -0.27614,0.27615 -0.27614,0.72386 0,1 0.27615,0.27615 0.72386,0.27615 1,0 z"
     fill="#41f6d7"
     id="path2" />
</svg>
